  <svg xmlns="http://www.w3.org/2000/svg" xmlns:xlink="http://www.w3.org/1999/xlink" version="1.1" width="2925.4473129723606" 
        height="3510.995163837967" viewBox="0 0 2925.4473129723606 3510.995163837967">
			<rect fill="#dbe8e1" width="2925.4473129723606" height="3510.995163837967"/>
			<g transform="scale(25.549758191898345) translate(10, 10)">
				<defs id="SvgjsDefs16941"></defs><g id="SvgjsG16942" featureKey="monogramFeature-0" transform="matrix(2.25,0,0,2.25,0,-40.5)" fill="#e10032"><path d="M33.3 60 c-4.56 0 -9.3 -0.66 -9.3 -8.82 c0 -4.08 -1.02 -4.08 -1.92 -4.08 c-2.1 0 -3.18 0.06 -4.08 0.06 l0 4.02 c0 6.24 -2.4 8.82 -8.88 8.82 c-4.26 0 -9.12 -1.26 -9.12 -8.82 l0 -24.18 c0 -5.7 1.74 -9 9.12 -9 c7.5 0 8.88 2.88 8.88 9 c0 3.6 0.78 3.84 2.76 3.84 l3.24 0 l0 -3.84 c0 -7.86 4.92 -9 9.24 -9 c6.24 0 8.76 2.76 8.76 9 l0 24.18 c0 7.68 -4.2 8.82 -8.7 8.82 z M18 43.019999999999996 l4.08 0 c6.06 0 6.06 6.12 6.06 8.16 c0 4.14 0.9 4.68 5.16 4.68 c3.72 0 4.56 -0.36 4.56 -4.68 l0 -24.18 c0 -3.84 -0.78 -4.86 -4.62 -4.86 c-4.14 0 -5.1 1.02 -5.1 4.86 l0 3.84 c2.46 0 5.4 0.42 6.84 3.48 c2.04 4.62 -2.22 9.96 -7.32 7.74 c-3.6 -1.44 -3.66 -5.58 -3.66 -7.08 l-3.24 0 c-6.18 0 -6.9 -4.62 -6.9 -7.98 c0 -1.62 0 -3.48 -0.66 -4.14 c-0.42 -0.48 -1.8 -0.72 -4.08 -0.72 c-2.22 0 -3.54 0.3 -3.96 0.84 c-0.48 0.54 -1.02 1.8 -1.02 4.02 l0 24.18 c0 3.36 0.66 4.68 4.98 4.68 c2.1 0 3.42 -0.54 3.96 -1.08 c0.54 -0.48 0.78 -1.68 0.78 -3.6 l0 -4.02 c-2.4 -0.18 -5.34 -0.48 -6.72 -3.12 c-2.58 -4.8 2.16 -10.56 7.5 -7.98 c2.7 1.26 3.18 4.14 3.36 6.96 z M10.74 42.06 c0.42 0.72 1.74 0.9 3.12 0.96 c-0.18 -2.16 -0.36 -2.94 -1.02 -3.24 c-1.8 -0.84 -2.7 1.2 -2.1 2.28 z M28.14 34.980000000000004 c0 1.62 0.18 3.42 1.8 3.42 c1.14 0 1.8 -1.2 1.32 -2.34 c-0.3 -0.54 -0.66 -0.9 -3.12 -1.08 z"></path></g><g id="SvgjsG16943" featureKey="nameFeature-0" transform="matrix(0.09386416851093182,0,0,0.09386416851093182,42.812271662978134,113.66337426188814)" fill="#dbe8e1"><path d="M2.52 40 c-0.28 0 -0.52 -0.24 -0.52 -0.52 l0 -23.96 c0 -0.28 0.24 -0.52 0.52 -0.52 l5.2 0 c0.28 0 0.52 0.24 0.52 0.52 l0 9.84 l9.04 0 l0 -9.84 c0 -0.28 0.24 -0.52 0.52 -0.52 l5.2 0 c0.28 0 0.52 0.24 0.52 0.52 l0 23.96 c0 0.28 -0.24 0.52 -0.52 0.52 l-5.2 0 c-0.28 0 -0.52 -0.24 -0.52 -0.52 l0 -8.6 l-9.04 0 l0 8.6 c0 0.28 -0.24 0.52 -0.52 0.52 l-5.2 0 z M42.611 40 c-2.4 0 -4.6 -0.56 -6.52 -1.68 c-1.96 -1.12 -3.52 -2.72 -4.68 -4.64 c-1.12 -1.96 -1.68 -4.2 -1.68 -6.6 c0 -2.36 0.56 -4.56 1.68 -6.52 c1.16 -1.96 2.68 -3.52 4.64 -4.64 s4.16 -1.68 6.56 -1.68 c2.36 0 4.56 0.56 6.52 1.68 s3.52 2.68 4.64 4.64 c1.16 1.96 1.72 4.16 1.72 6.52 c0 2.4 -0.56 4.6 -1.72 6.56 c-1.12 1.96 -2.68 3.52 -4.64 4.68 c-1.96 1.12 -4.16 1.68 -6.52 1.68 z M42.691 34.24 c1.16 0 2.24 -0.32 3.2 -0.92 c1 -0.64 1.8 -1.48 2.36 -2.6 c0.6 -1.08 0.88 -2.32 0.88 -3.64 c0 -1.28 -0.28 -2.52 -0.88 -3.6 c-0.56 -1.08 -1.36 -1.92 -2.36 -2.56 c-0.96 -0.6 -2.04 -0.92 -3.2 -0.92 c-1.2 0 -2.28 0.32 -3.28 0.92 c-1.04 0.64 -1.84 1.48 -2.44 2.56 c-0.6 1.12 -0.88 2.32 -0.88 3.6 c0 1.32 0.28 2.56 0.88 3.64 c0.64 1.08 1.44 1.96 2.44 2.56 c1 0.64 2.08 0.96 3.28 0.96 z M62.222 40 c-0.28 0 -0.52 -0.24 -0.52 -0.52 l0 -23.96 c0 -0.28 0.24 -0.52 0.52 -0.52 l5.2 0 c0.28 0 0.52 0.24 0.52 0.52 l0 18.72 l9 0 c0.28 0 0.52 0.24 0.52 0.52 l0 4.72 c0 0.28 -0.24 0.52 -0.52 0.52 l-14.72 0 z M84.193 40 c-0.16 0 -0.32 -0.08 -0.4 -0.24 c-0.12 -0.12 -0.12 -0.32 -0.08 -0.48 l9.32 -23.96 c0.08 -0.2 0.28 -0.32 0.48 -0.32 l5.36 0 c0.2 0 0.4 0.12 0.48 0.32 l9.16 23.96 c0.04 0.16 0.04 0.32 -0.08 0.48 c-0.08 0.16 -0.24 0.24 -0.4 0.24 l-5.56 0 c-0.2 0 -0.4 -0.12 -0.48 -0.32 l-1.48 -3.68 l-9 0.04 l-1.48 3.64 c-0.08 0.2 -0.28 0.32 -0.48 0.32 l-5.36 0 z M93.153 31 l5.76 0 l-2.88 -8.48 z"></path></g>
			</g>
		</svg>